<svg width="78" height="48" viewBox="0 0 78 48" fill="none" xmlns="http://www.w3.org/2000/svg">
<path opacity="0.5" fill-rule="evenodd" clip-rule="evenodd" d="M33.1542 40.8191C29.8812 44.9201 25.1456 47.1426 19.3867 47.1426C13.6149 47.1426 8.87833 44.9286 5.60793 40.826C2.35935 36.7507 0.632812 30.9096 0.632812 23.7598C0.632812 16.607 2.38276 10.8144 5.6461 6.78963C8.92993 2.73957 13.6654 0.582031 19.3867 0.582031C25.0929 0.582031 29.8283 2.73189 33.116 6.78185C36.3833 10.8068 38.1406 16.607 38.1406 23.7891C38.1406 30.9114 36.4059 36.7447 33.1542 40.8191ZM15.328 33.8739C16.4026 35.9999 17.814 36.8809 19.3867 36.8809C20.9609 36.8809 22.3798 35.9982 23.4612 33.8717C24.561 31.7089 25.2422 28.358 25.2422 23.7598C25.2422 19.1909 24.5609 15.8948 23.4647 13.7792C22.3902 11.7055 20.9749 10.8438 19.3867 10.8438C17.7999 10.8438 16.3922 11.7039 15.3246 13.7769C14.2348 15.8929 13.5605 19.1895 13.5605 23.7598C13.5605 28.3593 14.2347 31.7108 15.328 33.8739ZM53.0754 28.0996V18.6875H59.2609C60.8817 18.6875 62.128 18.2336 62.9517 17.5313C63.7603 16.8418 64.2375 15.8516 64.2375 14.5898C64.2375 13.3241 63.7729 12.3729 62.9767 11.7187C62.1576 11.0456 60.8896 10.6094 59.173 10.6094C57.5244 10.6094 56.2272 11.0982 55.3425 11.8738C54.4659 12.6423 53.9231 13.7527 53.8736 15.1526L53.8394 16.1172H42.1005L42.1185 15.0995C42.1966 10.6979 43.9321 7.03225 46.998 4.48259C50.0471 1.94697 54.3283 0.582031 59.4074 0.582031C64.2516 0.582031 68.4287 1.79953 71.423 3.98612C74.4374 6.18745 76.2277 9.36111 76.2277 13.125C76.2277 17.4892 73.8323 21.1179 70.1214 22.8322C72.019 23.4216 73.6456 24.3957 74.9106 25.7054C76.7638 27.6241 77.7805 30.2014 77.7805 33.1641C77.7805 37.3359 75.8019 40.8669 72.4789 43.3247C69.1744 45.7689 64.5642 47.1426 59.2316 47.1426C54.1187 47.1426 49.75 45.7462 46.5906 43.1881C43.417 40.6184 41.5315 36.9282 41.3284 32.5068L41.2804 31.4609H53.5368L53.5802 32.4155C53.6405 33.7425 54.1937 34.7675 55.1292 35.4822C56.0876 36.2144 57.524 36.6758 59.4074 36.6758C61.128 36.6758 62.4998 36.1864 63.4215 35.4252C64.3287 34.6761 64.8527 33.625 64.8527 32.3438C64.8527 30.9978 64.3504 29.9844 63.4718 29.2843C62.5659 28.5626 61.1628 28.0996 59.2609 28.0996H53.0754ZM68.4588 23.4448C68.0938 23.3738 67.719 23.3165 67.3349 23.2732C67.2999 23.2693 67.2648 23.2654 67.2297 23.2617V22.7051C67.2497 22.7014 67.2697 22.6976 67.2896 22.6938C67.672 22.6208 68.0446 22.5285 68.4064 22.418C72.5051 21.1664 75.2277 17.5749 75.2277 13.125C75.2277 6.29883 68.7824 1.58203 59.4074 1.58203C49.995 1.58203 43.7891 6.43232 43.1673 14.1172C43.1407 14.4454 43.1244 14.7788 43.1184 15.1172H52.8742C52.9914 11.8066 55.4816 9.60938 59.173 9.60938C62.923 9.60938 65.2375 11.5137 65.2375 14.5898C65.2375 17.666 62.8645 19.6875 59.2609 19.6875H54.0754V27.0996H59.2609C63.3625 27.0996 65.8527 29.0918 65.8527 32.3438C65.8527 35.5078 63.216 37.6758 59.4074 37.6758C55.3352 37.6758 52.7277 35.6836 52.5812 32.4609H42.3273C42.3429 32.7992 42.3689 33.1325 42.405 33.4609C43.2561 41.1828 49.7613 46.1426 59.2316 46.1426C69.5734 46.1426 76.7805 40.8105 76.7805 33.1641C76.7805 28.1083 73.5776 24.4395 68.4588 23.4448ZM37.1406 23.7891C37.1406 37.7344 30.3438 46.1426 19.3867 46.1426C8.40039 46.1426 1.63281 37.7637 1.63281 23.7598C1.63281 9.75586 8.48828 1.58203 19.3867 1.58203C30.2559 1.58203 37.1406 9.72656 37.1406 23.7891ZM12.5605 23.7598C12.5605 33.1055 15.2852 37.8809 19.3867 37.8809C23.4883 37.8809 26.2422 33.1055 26.2422 23.7598C26.2422 14.4727 23.4883 9.84375 19.3867 9.84375C15.2852 9.84375 12.5605 14.4727 12.5605 23.7598Z" fill="white"/>
</svg>
