<svg width="66" height="48" viewBox="0 0 66 48" fill="none" xmlns="http://www.w3.org/2000/svg">
<path opacity="0.5" fill-rule="evenodd" clip-rule="evenodd" d="M33.1542 40.8191C29.8812 44.9201 25.1456 47.1426 19.3867 47.1426C13.6149 47.1426 8.87833 44.9286 5.60793 40.826C2.35935 36.7507 0.632812 30.9096 0.632812 23.7598C0.632812 16.607 2.38276 10.8144 5.6461 6.78963C8.92993 2.73957 13.6654 0.582031 19.3867 0.582031C25.0929 0.582031 29.8283 2.73189 33.116 6.78185C36.3833 10.8068 38.1406 16.607 38.1406 23.7891C38.1406 30.9114 36.4059 36.7447 33.1542 40.8191ZM15.328 33.8739C16.4026 35.9999 17.814 36.8809 19.3867 36.8809C20.9609 36.8809 22.3798 35.9982 23.4612 33.8717C24.561 31.7089 25.2422 28.358 25.2422 23.7598C25.2422 19.1909 24.5609 15.8948 23.4647 13.7792C22.3902 11.7055 20.9749 10.8438 19.3867 10.8438C17.7999 10.8438 16.3922 11.7039 15.3246 13.7769C14.2348 15.8929 13.5605 19.1895 13.5605 23.7598C13.5605 28.3593 14.2347 31.7108 15.328 33.8739ZM52.8996 46V13.9279L42.1477 21.1886V9.52006L53.5914 1.72461H65.6516V46H52.8996ZM53.343 12.4219H53.8996V45H64.6516V2.72461H53.8996L43.1477 10.0488V19.3066L53.343 12.4219ZM37.1406 23.7891C37.1406 37.7344 30.3438 46.1426 19.3867 46.1426C8.40039 46.1426 1.63281 37.7637 1.63281 23.7598C1.63281 9.75586 8.48828 1.58203 19.3867 1.58203C30.2559 1.58203 37.1406 9.72656 37.1406 23.7891ZM12.5605 23.7598C12.5605 33.1055 15.2852 37.8809 19.3867 37.8809C23.4883 37.8809 26.2422 33.1055 26.2422 23.7598C26.2422 14.4727 23.4883 9.84375 19.3867 9.84375C15.2852 9.84375 12.5605 14.4727 12.5605 23.7598Z" fill="white"/>
</svg>
