<svg width="77" height="48" viewBox="0 0 77 48" fill="none" xmlns="http://www.w3.org/2000/svg">
<path opacity="0.5" fill-rule="evenodd" clip-rule="evenodd" d="M33.1542 40.8191C29.8812 44.9201 25.1456 47.1426 19.3867 47.1426C13.6149 47.1426 8.87833 44.9286 5.60793 40.826C2.35935 36.7507 0.632812 30.9096 0.632812 23.7598C0.632812 16.607 2.38276 10.8144 5.6461 6.78963C8.92993 2.73957 13.6654 0.582031 19.3867 0.582031C25.0929 0.582031 29.8283 2.73189 33.116 6.78185C36.3833 10.8068 38.1406 16.607 38.1406 23.7891C38.1406 30.9114 36.4059 36.7447 33.1542 40.8191ZM15.328 33.8739C16.4026 35.9999 17.814 36.8809 19.3867 36.8809C20.9609 36.8809 22.3798 35.9982 23.4612 33.8717C24.561 31.7089 25.2422 28.358 25.2422 23.7598C25.2422 19.1909 24.5609 15.8948 23.4647 13.7792C22.3902 11.7055 20.9749 10.8438 19.3867 10.8438C17.7999 10.8438 16.3922 11.7039 15.3246 13.7769C14.2348 15.8929 13.5605 19.1895 13.5605 23.7598C13.5605 28.3593 14.2347 31.7108 15.328 33.8739ZM42.0012 16.8496V15.6738C42.0012 11.1912 43.7593 7.3873 46.8563 4.71744C49.9406 2.05856 54.2824 0.582031 59.3781 0.582031C64.2797 0.582031 68.4637 1.89447 71.445 4.26767C74.4448 6.6556 76.1691 10.0768 76.1691 14.1211C76.1691 19.2858 73.0867 23.7089 65.5863 30.3899L59.9012 35.6211H76.7551V46H42.6164V37.3901L56.2969 24.5196C59.405 21.6461 61.2903 19.7314 62.4011 18.2492C63.4832 16.8054 63.7688 15.8536 63.7688 14.8828C63.7688 13.589 63.3001 12.571 62.5207 11.8681C61.7319 11.1567 60.5439 10.6973 58.9973 10.6973C57.4108 10.6973 56.1319 11.2312 55.2549 12.0815C54.3799 12.9298 53.8449 14.1507 53.8449 15.6445V16.8496H42.0012ZM57.9426 36.0645L64.9152 29.6484C72.4152 22.9688 75.1691 18.8086 75.1691 14.1211C75.1691 6.65039 68.841 1.58203 59.3781 1.58203C49.8879 1.58203 43.4383 6.89633 43.0225 14.8496C43.0083 15.1213 43.0012 15.3961 43.0012 15.6738V15.8496H52.8449V15.6445C52.8449 12.1582 55.3645 9.69727 58.9973 9.69727C62.4836 9.69727 64.7688 11.7773 64.7688 14.8828C64.7688 17.373 63.1867 19.5117 56.9758 25.2539L43.6164 37.8223V45H75.7551V36.6211H57.9426V36.0645ZM37.1406 23.7891C37.1406 37.7344 30.3438 46.1426 19.3867 46.1426C8.40039 46.1426 1.63281 37.7637 1.63281 23.7598C1.63281 9.75586 8.48828 1.58203 19.3867 1.58203C30.2559 1.58203 37.1406 9.72656 37.1406 23.7891ZM12.5605 23.7598C12.5605 33.1055 15.2852 37.8809 19.3867 37.8809C23.4883 37.8809 26.2422 33.1055 26.2422 23.7598C26.2422 14.4727 23.4883 9.84375 19.3867 9.84375C15.2852 9.84375 12.5605 14.4727 12.5605 23.7598Z" fill="white"/>
</svg>
