<?xml version="1.0" standalone="no"?>
<!DOCTYPE svg PUBLIC "-//W3C//DTD SVG 20010904//EN"
 "http://www.w3.org/TR/2001/REC-SVG-20010904/DTD/svg10.dtd">
<svg version="1.0" xmlns="http://www.w3.org/2000/svg"
 width="1024.000000pt" height="1024.000000pt" viewBox="0 0 1024.000000 1024.000000"
 preserveAspectRatio="xMidYMid meet">
<metadata>
Created by potrace 1.11, written by Peter Selinger 2001-2013
</metadata>
<g transform="translate(0.000000,1024.000000) scale(0.100000,-0.100000)"
fill="#000000" stroke="none">
<path d="M0 5120 l0 -5120 5120 0 5120 0 0 5120 0 5120 -5120 0 -5120 0 0
-5120z m5290 3151 c0 -5 44 -11 98 -14 169 -9 383 -44 537 -87 22 -7 55 -14
73 -17 17 -3 32 -9 32 -14 0 -5 13 -9 29 -9 17 0 32 -4 35 -9 3 -4 20 -11 38
-15 38 -7 163 -53 210 -77 10 -5 25 -9 33 -9 8 0 15 -4 15 -10 0 -5 6 -10 13
-10 17 0 53 -16 156 -69 47 -24 96 -49 108 -55 13 -6 23 -14 23 -18 0 -5 5 -8
10 -8 6 0 28 -11 50 -25 22 -14 46 -25 55 -25 8 0 15 -4 15 -8 0 -5 12 -15 28
-23 15 -8 32 -18 38 -24 35 -30 56 -46 84 -60 29 -15 43 -25 93 -69 12 -10 47
-37 77 -59 30 -23 64 -50 76 -62 11 -11 47 -42 79 -70 32 -27 67 -61 79 -74
12 -13 41 -45 66 -70 63 -65 133 -147 195 -225 17 -22 35 -44 40 -50 6 -6 24
-31 40 -56 17 -25 37 -53 46 -63 9 -9 22 -30 30 -45 8 -15 21 -35 30 -44 8
-10 26 -37 38 -60 13 -24 35 -63 49 -88 14 -25 39 -72 56 -105 17 -33 34 -61
39 -63 4 -2 7 -12 7 -23 0 -10 3 -19 8 -19 4 0 12 -15 19 -32 33 -94 49 -133
56 -136 4 -2 7 -12 7 -22 0 -10 5 -22 10 -25 6 -3 10 -15 10 -26 0 -19 4 -28
28 -76 7 -13 12 -30 12 -38 0 -8 4 -23 9 -33 13 -24 68 -234 81 -307 40 -224
50 -305 56 -487 l6 -158 -395 0 c-276 0 -398 3 -403 11 -3 6 -10 72 -15 147
-5 76 -13 166 -19 202 -6 36 -13 83 -16 105 -3 22 -10 44 -15 50 -5 5 -9 20
-9 34 0 13 -4 38 -10 55 -5 17 -24 76 -41 131 -29 94 -48 147 -70 187 -5 10
-9 25 -9 33 0 8 -4 15 -10 15 -5 0 -10 6 -10 14 0 15 -45 104 -94 186 -15 25
-29 53 -33 63 -3 9 -9 17 -14 17 -5 0 -9 7 -9 15 0 8 -4 15 -10 15 -5 0 -10 6
-10 13 0 6 -10 24 -23 39 -12 15 -40 52 -62 83 -22 32 -51 70 -65 85 -14 16
-43 49 -65 75 -22 26 -60 66 -84 89 -23 22 -62 59 -85 81 -22 22 -59 54 -81
70 -22 16 -47 37 -55 46 -22 23 -193 140 -280 190 -109 64 -197 106 -360 171
-14 6 -33 14 -42 19 -10 5 -27 9 -37 9 -11 0 -22 4 -25 9 -3 5 -18 11 -33 14
-16 3 -75 17 -133 31 -319 81 -654 93 -1003 37 -84 -14 -249 -52 -269 -62 -10
-5 -27 -9 -37 -9 -11 0 -23 -4 -26 -10 -3 -5 -15 -10 -26 -10 -10 0 -27 -4
-37 -9 -9 -5 -28 -13 -42 -19 -132 -53 -278 -119 -290 -132 -5 -5 -12 -9 -100
-56 -30 -16 -57 -31 -60 -34 -3 -3 -43 -32 -90 -65 -47 -32 -91 -65 -98 -72
-8 -7 -30 -26 -50 -41 -71 -52 -239 -215 -277 -268 -11 -15 -35 -43 -52 -61
-18 -18 -33 -36 -33 -41 0 -5 -13 -23 -30 -40 -16 -18 -30 -34 -30 -38 0 -3
-11 -20 -25 -38 -14 -18 -25 -38 -25 -44 0 -7 -4 -12 -10 -12 -5 0 -10 -7 -10
-15 0 -8 -4 -15 -10 -15 -5 0 -10 -6 -10 -13 0 -7 -9 -23 -20 -35 -11 -12 -20
-28 -20 -37 0 -8 -4 -15 -10 -15 -5 0 -10 -7 -10 -15 0 -8 -4 -15 -10 -15 -5
0 -10 -8 -10 -17 0 -10 -11 -38 -25 -62 -14 -23 -25 -49 -25 -57 0 -8 -4 -14
-10 -14 -5 0 -10 -7 -10 -15 0 -8 -4 -23 -9 -33 -19 -36 -51 -112 -51 -122 0
-6 -4 -18 -9 -28 -14 -26 -72 -235 -82 -300 -6 -31 -14 -82 -20 -112 -28 -160
-28 -536 0 -700 17 -102 39 -209 49 -242 54 -176 87 -274 94 -276 4 -2 8 -10
8 -18 0 -8 4 -22 9 -32 57 -114 81 -165 81 -177 0 -8 5 -15 10 -15 6 0 10 -7
10 -15 0 -8 5 -15 10 -15 6 0 10 -9 10 -20 0 -11 5 -20 10 -20 6 0 10 -7 10
-15 0 -8 5 -15 10 -15 6 0 10 -7 10 -15 0 -8 5 -15 10 -15 6 0 10 -7 10 -15 0
-8 5 -15 10 -15 6 0 10 -5 10 -11 0 -12 70 -112 82 -117 5 -2 8 -10 8 -18 0
-8 5 -14 10 -14 6 0 10 -5 10 -10 0 -6 15 -25 33 -43 17 -18 41 -46 52 -61 11
-16 64 -72 118 -125 113 -110 110 -107 159 -143 20 -15 42 -34 50 -41 7 -7 45
-35 83 -62 39 -27 72 -53 73 -57 2 -5 10 -8 18 -8 8 0 14 -3 14 -7 0 -5 10
-13 23 -18 51 -24 132 -71 135 -77 2 -5 10 -8 18 -8 8 0 14 -4 14 -10 0 -5 9
-10 20 -10 11 0 20 -4 20 -10 0 -5 9 -10 20 -10 11 0 20 -4 20 -10 0 -5 6 -10
14 -10 8 0 43 -12 78 -26 35 -14 74 -31 88 -36 14 -6 33 -14 42 -19 10 -5 27
-9 38 -9 11 0 20 -4 20 -10 0 -5 11 -10 25 -10 14 0 33 -4 43 -9 63 -34 357
-83 580 -97 l102 -7 0 390 0 390 -102 11 c-139 16 -163 19 -233 32 -64 11
-179 45 -207 61 -10 5 -27 9 -38 9 -11 0 -20 5 -20 10 0 6 -9 10 -19 10 -11 0
-23 5 -26 10 -3 6 -15 10 -26 10 -10 0 -19 5 -19 10 0 6 -9 10 -19 10 -11 0
-21 3 -23 8 -1 4 -21 16 -43 27 -50 24 -159 96 -163 107 -2 4 -9 8 -16 8 -7 0
-30 16 -52 36 -21 20 -57 50 -79 67 -22 17 -42 34 -45 38 -17 22 -89 106 -110
129 -36 39 -51 58 -94 125 -22 33 -43 62 -48 63 -4 2 -8 12 -8 23 0 10 -4 19
-8 19 -5 0 -14 16 -22 35 -8 19 -17 35 -22 35 -4 0 -8 9 -8 20 0 11 -4 20 -9
20 -5 0 -11 10 -14 23 -5 21 -41 130 -57 172 -19 51 -30 93 -30 116 0 14 -4
29 -9 34 -16 17 -23 114 -23 310 -1 195 8 311 23 321 5 3 9 17 9 31 0 26 15
83 30 113 4 9 11 31 15 49 12 55 101 252 117 259 5 2 8 8 8 13 0 9 84 142 105
166 5 6 33 37 60 69 79 91 203 209 252 241 15 10 37 26 47 35 11 10 26 18 33
18 7 0 13 4 13 8 0 5 12 15 28 23 15 8 29 16 32 19 11 11 156 80 168 80 6 0
12 5 12 10 0 6 7 10 15 10 8 0 23 4 33 9 125 64 383 112 597 112 213 -1 475
-50 597 -112 10 -5 25 -9 33 -9 8 0 15 -4 15 -10 0 -5 6 -10 13 -10 11 0 156
-69 167 -80 3 -3 17 -11 33 -19 15 -8 27 -18 27 -23 0 -4 6 -8 13 -8 7 0 22
-8 33 -18 10 -9 31 -25 46 -35 30 -19 144 -123 192 -176 17 -19 45 -49 63 -67
37 -37 163 -217 163 -232 0 -6 3 -12 8 -14 9 -4 82 -154 82 -169 0 -5 5 -18
10 -29 6 -11 15 -29 20 -40 6 -11 10 -29 10 -39 0 -11 5 -23 10 -26 6 -3 10
-19 10 -35 0 -16 5 -32 10 -35 6 -3 10 -21 10 -39 0 -17 4 -36 9 -41 11 -12
19 -82 27 -222 l6 -103 -401 0 -401 0 -4 23 c-3 12 -10 64 -17 115 -7 51 -16
95 -20 98 -5 3 -9 12 -9 20 0 19 -61 148 -72 152 -4 2 -8 8 -8 13 0 10 -63 98
-96 135 -11 11 -37 33 -59 50 -22 16 -49 37 -59 47 -11 9 -25 17 -32 17 -7 0
-14 4 -16 8 -5 13 -131 71 -170 78 -18 4 -37 10 -43 14 -43 31 -382 30 -401
-1 -3 -5 -16 -9 -29 -9 -26 0 -178 -68 -183 -82 -2 -4 -9 -8 -16 -8 -7 0 -21
-8 -32 -17 -10 -10 -37 -31 -59 -47 -46 -35 -63 -52 -116 -121 -45 -60 -119
-200 -119 -226 0 -11 -4 -19 -9 -19 -15 0 -23 -79 -23 -230 0 -151 8 -230 23
-230 5 0 9 -11 9 -24 0 -14 5 -28 10 -31 6 -3 10 -15 10 -26 0 -10 3 -19 8
-19 4 0 14 -15 21 -32 15 -33 54 -97 81 -132 23 -30 114 -116 121 -116 4 0 14
-6 21 -13 48 -47 206 -127 252 -127 12 0 26 -3 30 -7 11 -11 115 -32 164 -32
l42 -1 0 -389 c0 -302 3 -390 13 -393 16 -6 210 8 272 20 93 18 264 84 273
105 2 4 12 7 22 7 10 0 20 4 22 8 2 4 35 30 73 57 39 28 98 78 133 112 35 34
72 69 83 77 11 7 66 58 122 112 137 132 178 167 272 228 33 22 62 43 63 48 2
4 12 8 22 8 10 0 20 4 22 8 7 18 206 102 240 102 10 0 18 5 18 10 0 6 15 10
34 10 19 0 37 4 40 9 20 32 522 32 542 0 3 -5 15 -9 26 -9 23 0 81 -17 110
-31 10 -5 23 -9 29 -9 19 0 132 -52 176 -82 23 -15 46 -28 52 -28 6 0 11 -4
11 -10 0 -5 5 -10 11 -10 12 0 105 -64 129 -90 8 -9 35 -31 60 -50 25 -19 70
-59 101 -90 178 -175 304 -287 363 -325 17 -11 37 -25 44 -32 7 -7 17 -13 22
-13 5 0 15 -6 22 -13 12 -11 52 -30 143 -67 80 -33 157 -48 305 -60 58 -4 113
-11 123 -15 16 -7 17 -33 15 -394 l-3 -386 -135 1 c-124 1 -173 6 -332 33 -60
10 -192 47 -220 62 -10 5 -25 9 -33 9 -8 0 -23 4 -33 9 -9 5 -71 35 -137 67
-66 31 -122 59 -125 63 -3 3 -17 12 -32 20 -16 8 -28 18 -28 23 0 4 -5 8 -10
8 -13 0 -110 68 -131 92 -9 10 -19 18 -23 18 -7 0 -46 33 -103 87 -25 24 -47
43 -49 43 -3 0 -48 42 -102 94 -194 188 -274 256 -300 256 -7 0 -12 5 -12 10
0 6 -7 10 -15 10 -8 0 -23 4 -33 9 -59 30 -232 45 -247 21 -3 -5 -19 -10 -36
-10 -16 0 -29 -4 -29 -10 0 -5 -7 -10 -16 -10 -15 0 -106 -58 -154 -99 -51
-43 -133 -119 -261 -243 -72 -71 -135 -128 -140 -128 -4 0 -24 -16 -43 -35
-20 -19 -38 -35 -41 -35 -4 0 -27 -16 -53 -35 -26 -19 -52 -38 -57 -42 -25
-18 -71 -45 -87 -50 -10 -3 -18 -9 -18 -14 0 -5 -4 -9 -10 -9 -8 0 -173 -75
-222 -101 -10 -5 -25 -9 -33 -9 -8 0 -23 -4 -33 -10 -73 -41 -328 -87 -542
-98 l-125 -7 -3 -397 -2 -398 -103 0 c-57 0 -107 4 -113 9 -5 5 -49 12 -99 14
-140 7 -443 55 -487 78 -10 5 -27 9 -38 9 -11 0 -28 4 -38 9 -9 5 -37 14 -62
21 -25 7 -53 16 -62 21 -10 5 -23 9 -30 9 -14 0 -143 46 -170 61 -10 5 -25 9
-33 9 -8 0 -15 5 -15 10 0 6 -7 10 -15 10 -8 0 -23 4 -33 9 -45 23 -174 81
-182 81 -4 0 -10 3 -12 8 -1 4 -32 22 -68 41 -36 19 -67 37 -70 40 -3 4 -24
15 -47 26 -24 11 -43 23 -43 26 0 4 -13 12 -30 19 -16 7 -30 16 -30 21 0 5 -7
9 -15 9 -8 0 -15 5 -15 10 0 6 -7 10 -15 10 -8 0 -15 4 -15 8 0 4 -15 16 -32
27 -18 10 -42 27 -52 37 -11 10 -24 18 -29 18 -5 0 -17 8 -26 18 -9 9 -34 31
-56 47 -22 16 -50 39 -61 50 -12 11 -47 43 -79 70 -76 67 -123 114 -214 214
-42 46 -81 89 -86 95 -6 6 -22 27 -35 46 -13 19 -32 42 -42 51 -10 9 -18 19
-18 23 0 4 -11 18 -25 32 -14 14 -25 29 -25 33 0 7 -36 58 -70 98 -5 7 -10 16
-10 21 0 4 -8 17 -18 28 -10 10 -25 34 -32 52 -8 17 -17 32 -21 32 -3 0 -32
53 -65 117 -32 65 -62 120 -66 121 -5 2 -8 12 -8 23 0 10 -4 19 -10 19 -5 0
-10 8 -10 18 0 10 -4 22 -8 27 -5 6 -21 42 -36 80 -15 39 -32 79 -36 90 -5 11
-14 38 -21 60 -7 22 -17 44 -21 50 -4 5 -8 19 -8 31 0 13 -4 26 -10 29 -5 3
-10 17 -10 30 0 13 -4 27 -10 30 -5 3 -10 17 -10 31 0 13 -4 32 -9 42 -11 20
-49 198 -63 292 -27 177 -30 236 -31 510 -1 273 3 343 32 535 10 73 51 262 61
290 4 11 13 40 20 65 6 25 16 53 21 62 5 10 9 26 9 36 0 10 4 22 8 28 4 5 14
27 21 49 7 22 16 49 21 60 4 11 21 52 36 90 15 39 31 74 36 80 4 5 8 17 8 27
0 10 5 18 10 18 6 0 10 9 10 19 0 11 3 21 8 23 4 2 21 32 39 68 45 91 87 164
96 168 4 2 7 8 7 14 0 5 34 59 75 119 41 60 75 112 75 115 0 3 10 15 22 28 25
26 63 71 105 127 82 106 364 385 438 433 17 11 44 32 60 48 17 15 34 28 38 28
4 0 19 10 32 23 13 12 49 38 79 57 31 19 56 38 56 43 0 4 6 7 13 7 7 0 22 8
33 18 11 9 37 26 59 37 22 11 42 22 45 25 6 6 73 42 176 94 100 51 134 66 151
66 7 0 13 5 13 10 0 6 7 10 15 10 8 0 23 4 33 9 53 27 201 81 222 81 10 0 22
5 25 10 3 6 19 10 36 10 16 0 29 5 29 10 0 6 13 10 29 10 17 0 32 4 35 9 3 5
20 11 38 14 18 3 87 17 153 31 139 31 250 46 388 53 53 3 97 9 97 14 0 5 81 9
185 9 104 0 185 -4 185 -9z"/>
</g>
</svg>
