<svg width="119" height="31" viewBox="0 0 119 31" fill="none" xmlns="http://www.w3.org/2000/svg">
<path d="M38.7066 22.8203H33.0629L31.7076 26.8222H29.3171L34.6627 12.0162H37.1463L42.4919 26.8222H40.0607L38.7066 22.8203ZM33.6474 20.9736H38.1209L35.9156 14.4788H35.8539L33.6474 20.9736ZM54.0366 21.4254C54.0366 24.78 52.2411 26.9352 49.5316 26.9352C48.1311 27.0084 46.8119 26.2749 46.1352 25.0466H46.0839V30.3933H43.8681V16.0274H46.0129V17.8229H46.0537C46.7605 16.6022 48.0811 15.869 49.4909 15.9145C52.2306 15.9145 54.0366 18.0802 54.0366 21.4254ZM51.7591 21.4254C51.7591 19.2399 50.6296 17.8031 48.9064 17.8031C47.2134 17.8031 46.0746 19.2702 46.0746 21.4254C46.0746 23.6005 47.2134 25.0571 48.9064 25.0571C50.6296 25.0571 51.7591 23.6307 51.7591 21.4254ZM65.9177 21.4254C65.9177 24.78 64.1223 26.9352 61.4128 26.9352C60.0123 27.0084 58.6931 26.2749 58.0164 25.0466H57.9651V30.3933H55.7493V16.0274H57.894V17.8229H57.9348C58.6416 16.6022 59.9622 15.869 61.372 15.9145C64.1118 15.9145 65.9177 18.0802 65.9177 21.4254ZM63.6402 21.4254C63.6402 19.2399 62.5108 17.8031 60.7875 17.8031C59.0945 17.8031 57.9558 19.2702 57.9558 21.4254C57.9558 23.6005 59.0945 25.0571 60.7875 25.0571C62.5108 25.0571 63.6402 23.6307 63.6402 21.4254H63.6402ZM73.7702 22.6969C73.9344 24.1652 75.3607 25.1292 77.3099 25.1292C79.1775 25.1292 80.5212 24.1651 80.5212 22.8412C80.5212 21.692 79.7108 21.0039 77.7919 20.5323L75.873 20.07C73.1543 19.4133 71.8921 18.1419 71.8921 16.0786C71.8921 13.524 74.1183 11.7693 77.2796 11.7693C80.4082 11.7693 82.553 13.524 82.6252 16.0786H80.3884C80.2545 14.601 79.0331 13.7091 77.2481 13.7091C75.4631 13.7091 74.2417 14.6115 74.2417 15.9249C74.2417 16.9717 75.0219 17.5876 76.9302 18.0591L78.5615 18.4597C81.5993 19.1781 82.8615 20.3984 82.8615 22.5641C82.8615 25.3341 80.655 27.069 77.1456 27.069C73.8621 27.069 71.6452 25.3748 71.502 22.6968L73.7702 22.6969ZM87.6436 13.4728V16.0274H89.6963V17.7821H87.6436V23.7332C87.6436 24.6577 88.0546 25.0885 88.957 25.0885C89.2007 25.0843 89.444 25.0671 89.6859 25.0372V26.7814C89.2801 26.8573 88.8678 26.8916 88.4551 26.8839C86.2696 26.8839 85.4173 26.063 85.4173 23.9695V17.7821H83.8478V16.0274H85.4173V13.4728H87.6436ZM90.8852 21.4254C90.8852 18.029 92.8856 15.8947 96.0049 15.8947C99.1347 15.8947 101.126 18.0289 101.126 21.4254C101.126 24.8312 99.1452 26.9561 96.0049 26.9561C92.8657 26.9561 90.8852 24.8312 90.8852 21.4254ZM98.8681 21.4254C98.8681 19.0955 97.8003 17.7204 96.0049 17.7204C94.2095 17.7204 93.1429 19.106 93.1429 21.4254C93.1429 23.7646 94.2095 25.1293 96.0049 25.1293C97.8003 25.1293 98.868 23.7646 98.868 21.4254H98.8681ZM102.953 16.0274H105.066V17.8648H105.117C105.412 16.682 106.496 15.868 107.714 15.9145C107.969 15.9136 108.224 15.9413 108.473 15.9971V18.0697C108.151 17.9712 107.814 17.926 107.477 17.9358C106.826 17.9094 106.195 18.169 105.752 18.6465C105.308 19.124 105.095 19.7716 105.168 20.4194V26.8222H102.953L102.953 16.0274ZM118.689 23.6517C118.391 25.6113 116.483 26.9561 114.041 26.9561C110.901 26.9561 108.951 24.8521 108.951 21.4766C108.951 18.0907 110.911 15.8947 113.948 15.8947C116.934 15.8947 118.812 17.9463 118.812 21.2193V21.9785H111.188V22.1124C111.117 22.916 111.394 23.7115 111.95 24.2965C112.506 24.8816 113.286 25.1997 114.092 25.17C115.167 25.2707 116.181 24.6533 116.585 23.6517L118.689 23.6517ZM111.199 20.4299L116.595 20.4299C116.636 19.7077 116.373 19.0016 115.87 18.4815C115.368 17.9614 114.671 17.6746 113.948 17.6901C113.219 17.6858 112.519 17.9727 112.002 18.4872C111.486 19.0017 111.197 19.7011 111.199 20.4299Z" fill="white"/>
<path d="M33.3697 0.871535C34.3103 0.804031 35.2317 1.16192 35.8802 1.84669C36.5286 2.53146 36.8358 3.47094 36.7172 4.40654C36.7172 6.67937 35.4888 7.98584 33.3697 7.98584H30.7999V0.871535H33.3697ZM31.9049 6.97973H33.2462C33.9185 7.01991 34.5731 6.75505 35.0282 6.25868C35.4833 5.76231 35.6906 5.08729 35.5924 4.42103C35.6835 3.75754 35.4732 3.08809 35.0192 2.59577C34.5652 2.10345 33.9149 1.83979 33.2462 1.8769H31.9049V6.97973ZM37.9654 5.29898C37.8733 4.33665 38.3348 3.40532 39.1562 2.89559C39.9776 2.38586 41.017 2.38586 41.8384 2.89559C42.6598 3.40532 43.1213 4.33665 43.0292 5.29898C43.123 6.26234 42.662 7.19547 41.8399 7.7063C41.0177 8.21713 39.9769 8.21713 39.1548 7.7063C38.3326 7.19547 37.8716 6.26234 37.9654 5.29898ZM41.9394 5.29898C41.9394 4.1352 41.4166 3.45463 40.4991 3.45463C39.5781 3.45463 39.0599 4.1352 39.0599 5.29899C39.0599 6.47209 39.5781 7.14741 40.4991 7.14741C41.4166 7.1474 41.9394 6.46742 41.9394 5.29898H41.9394ZM49.7604 7.98574H48.6613L47.5516 4.03156H47.4678L46.3628 7.98574H45.2741L43.7942 2.61686H44.8689L45.8307 6.71363H45.9099L47.0137 2.61686H48.0302L49.134 6.71363H49.2178L50.1749 2.61686H51.2345L49.7604 7.98574ZM52.4792 2.61686H53.4992V3.46975H53.5784C53.8537 2.8418 54.4971 2.45767 55.1805 2.51322C55.7097 2.47344 56.2282 2.67644 56.5897 3.06491C56.9513 3.45337 57.1165 3.98515 57.0388 4.5101V7.98568H55.9793V4.77617C55.9793 3.91339 55.6044 3.48431 54.8207 3.48431C54.4618 3.46759 54.1135 3.60846 53.8671 3.86997C53.6207 4.13148 53.5007 4.48757 53.5388 4.84486V7.98574H52.4792L52.4792 2.61686ZM58.7272 0.520996H59.7867V7.98572H58.7272V0.520996ZM61.2597 5.29898C61.1677 4.33659 61.6292 3.40524 62.4507 2.8955C63.2721 2.38576 64.3116 2.38576 65.1331 2.8955C65.9545 3.40524 66.416 4.33659 66.3241 5.29898C66.4178 6.26238 65.9566 7.19548 65.1345 7.70629C64.3123 8.21709 63.2714 8.21709 62.4493 7.70629C61.6271 7.19548 61.166 6.26238 61.2597 5.29898ZM65.2336 5.29898C65.2336 4.1352 64.7108 3.45463 63.7933 3.45463C62.8723 3.45463 62.3542 4.1352 62.3542 5.29899C62.3542 6.47209 62.8723 7.14741 63.7933 7.14741C64.7108 7.1474 65.2336 6.46742 65.2336 5.29898H65.2336ZM67.4395 6.46742C67.4395 5.50099 68.1591 4.94385 69.4364 4.86467L70.8907 4.78084V4.31742C70.8907 3.75037 70.5158 3.43018 69.7915 3.43018C69.2 3.43018 68.7902 3.64733 68.6726 4.02692H67.6468C67.7551 3.10474 68.6225 2.51325 69.8404 2.51325C71.1864 2.51325 71.9456 3.18332 71.9456 4.31742V7.98575H70.9256V7.23124H70.8418C70.4954 7.78224 69.8793 8.10427 69.2291 8.07421C68.7734 8.12161 68.3188 7.974 67.9778 7.66787C67.6369 7.36173 67.4413 6.92565 67.4395 6.46742ZM70.8907 6.00865V5.5598L69.5796 5.64363C68.8402 5.69311 68.5049 5.94461 68.5049 6.41792C68.5049 6.90113 68.9241 7.18232 69.5005 7.18232C69.8417 7.21686 70.1823 7.11145 70.4444 6.8902C70.7065 6.66896 70.8675 6.35083 70.8907 6.00865ZM73.3382 5.29898C73.3382 3.6025 74.2103 2.52779 75.5668 2.52779C76.2517 2.49623 76.8932 2.86325 77.2132 3.46972H77.2924V0.520996H78.3519V7.98572H77.3366V7.13748H77.2528C76.9087 7.73891 76.2592 8.09973 75.5668 8.07421C74.201 8.07426 73.3382 6.99953 73.3382 5.29898ZM74.4327 5.29898C74.4327 6.43773 74.9695 7.12296 75.8672 7.12296C76.7603 7.12296 77.3122 6.42784 77.3122 5.30364C77.3122 4.18468 76.7545 3.47966 75.8672 3.47966C74.9753 3.47966 74.4327 4.16954 74.4327 5.29898H74.4327ZM82.7358 5.29898C82.6437 4.33665 83.1051 3.40532 83.9266 2.89559C84.748 2.38586 85.7873 2.38586 86.6088 2.89559C87.4302 3.40532 87.8916 4.33665 87.7996 5.29898C87.8934 6.26234 87.4324 7.19547 86.6102 7.7063C85.7881 8.21713 84.7473 8.21713 83.9251 7.7063C83.103 7.19547 82.6419 6.26234 82.7358 5.29898ZM86.7097 5.29898C86.7097 4.1352 86.1869 3.45463 85.2694 3.45463C84.3484 3.45463 83.8303 4.1352 83.8303 5.29899C83.8303 6.47209 84.3484 7.14741 85.2694 7.14741C86.1869 7.1474 86.7097 6.46742 86.7097 5.29898ZM89.2212 2.61686H90.2412V3.46975H90.3204C90.5958 2.8418 91.2392 2.45767 91.9226 2.51322C92.4517 2.47344 92.9703 2.67644 93.3318 3.06491C93.6933 3.45337 93.8586 3.98515 93.7809 4.5101V7.98568H92.7213V4.77617C92.7213 3.91339 92.3464 3.48431 91.5628 3.48431C91.2039 3.46759 90.8555 3.60846 90.6091 3.86997C90.3627 4.13148 90.2428 4.48757 90.2808 4.84486V7.98574H89.2212V2.61686ZM99.7681 1.28017V2.64131H100.931V3.5338H99.7681V6.29451C99.7681 6.8569 99.9998 7.10315 100.527 7.10315C100.662 7.10272 100.797 7.09456 100.931 7.0787V7.96128C100.741 7.99532 100.548 8.01343 100.355 8.01542C99.1766 8.01542 98.7073 7.60091 98.7073 6.56579V3.53375H97.855V2.64126H98.7073V1.28017H99.7681ZM102.379 0.520996H103.429V3.47965H103.513C103.801 2.8462 104.456 2.46158 105.15 2.51788C105.676 2.48925 106.187 2.69672 106.545 3.08378C106.902 3.47084 107.069 3.99718 106.999 4.51942V7.98574H105.938V4.78081C105.938 3.92326 105.539 3.48895 104.79 3.48895C104.421 3.45872 104.058 3.59273 103.798 3.85516C103.537 4.11759 103.405 4.48168 103.438 4.85009V7.98571H102.379L102.379 0.520996ZM113.177 6.5361C112.88 7.54883 111.9 8.20316 110.85 8.08936C110.135 8.10826 109.447 7.81152 108.969 7.27787C108.491 6.74422 108.272 6.02762 108.37 5.31819C108.275 4.60678 108.493 3.88903 108.968 3.35087C109.443 2.81272 110.128 2.50711 110.846 2.51323C112.34 2.51323 113.241 3.53385 113.241 5.21977V5.5895H109.45V5.64887C109.416 6.04727 109.552 6.44134 109.824 6.73416C110.097 7.02698 110.48 7.19139 110.88 7.18695C111.398 7.24918 111.903 6.99205 112.157 6.53607L113.177 6.5361ZM109.45 4.80586H112.162C112.189 4.44149 112.06 4.08266 111.809 3.8178C111.557 3.55293 111.205 3.40666 110.84 3.41504C110.47 3.41039 110.113 3.55544 109.852 3.81731C109.59 4.07917 109.445 4.43564 109.45 4.80586H109.45Z" fill="white"/>
<path d="M17.8014 14.6662C17.8275 12.6435 18.8879 10.7751 20.6111 9.71564C19.5191 8.15598 17.7555 7.20257 15.8524 7.14303C13.8503 6.93287 11.9093 8.34109 10.889 8.34109C9.84898 8.34109 8.27811 7.16389 6.58655 7.19869C4.3609 7.2706 2.33628 8.50534 1.25345 10.4512C-1.05247 14.4435 0.667542 20.3109 2.87642 23.538C3.98157 25.1182 5.27318 26.8834 6.96321 26.8208C8.61701 26.7522 9.23468 25.7662 11.231 25.7662C13.2087 25.7662 13.7882 26.8208 15.5125 26.781C17.2871 26.7522 18.4052 25.1938 19.4716 23.5986C20.2657 22.4726 20.8767 21.2282 21.282 19.9113C19.1743 19.0199 17.8039 16.9546 17.8014 14.6662ZM14.5445 5.02066C15.512 3.8591 15.9887 2.36612 15.8733 0.858765C14.395 1.01403 13.0295 1.72054 12.0489 2.83753C11.0805 3.93959 10.59 5.38138 10.6852 6.84534C12.1833 6.86077 13.6057 6.18824 14.5445 5.02066Z" fill="white"/>
</svg>
