<svg width="137" height="39" viewBox="0 0 137 39" fill="none" xmlns="http://www.w3.org/2000/svg">
<path d="M82.4332 29.9453C78.2933 29.9453 75.8582 27.2226 75.8582 23.3214V14.7875H79.6327V23.4433C79.6327 24.2967 79.9168 26.2473 82.4332 26.2473C84.0972 26.2473 85.3148 25.0688 85.3148 23.4433V14.7875H89.0894V23.3214C89.0894 27.1007 86.4512 29.9453 82.4332 29.9453Z" fill="white"/>
<path d="M94.4468 23.6873C94.9338 25.5159 96.3544 26.6131 98.1402 26.6131C99.3983 26.6131 100.657 26.0849 101.265 24.9064H105.324C104.472 27.9135 101.834 29.9861 98.1807 29.9861C94.0003 29.9861 90.5911 26.5319 90.5911 22.2243C90.5911 17.9167 94.0003 14.4219 98.1807 14.4219C102.564 14.4219 106.176 17.8355 105.608 23.6873H94.4468V23.6873ZM101.874 20.5582C101.428 18.8514 99.9666 17.7542 98.1807 17.7542C96.4761 17.7542 95.0556 18.8514 94.528 20.5582H101.874Z" fill="white"/>
<path d="M113.766 29.9453C109.626 29.9453 107.191 27.2226 107.191 23.3214V14.7875H110.966V23.4433C110.966 24.2967 111.25 26.2473 113.766 26.2473C115.43 26.2473 116.648 25.0688 116.648 23.4433V14.7875H120.422V23.3214C120.422 27.1007 117.784 29.9453 113.766 29.9453Z" fill="white"/>
<path d="M125.78 23.6873C126.267 25.5159 127.687 26.6131 129.473 26.6131C130.731 26.6131 131.989 26.0849 132.598 24.9064H136.657C135.805 27.9135 133.166 29.9861 129.514 29.9861C125.333 29.9861 121.924 26.5319 121.924 22.2243C121.924 17.9167 125.333 14.4219 129.514 14.4219C133.897 14.4219 137.509 17.8355 136.941 23.6873H125.78V23.6873ZM133.207 20.5582C132.761 18.8514 131.299 17.7542 129.514 17.7542C127.809 17.7542 126.388 18.8514 125.861 20.5582H133.207Z" fill="white"/>
<path d="M74.6406 29.9454L71.7184 26.857C73.4231 24.9877 74.3971 22.4275 74.3971 19.5422C74.3971 13.7717 70.2979 9.13904 64.6564 9.13904C58.9742 9.13904 54.875 13.7311 54.875 19.5422C54.875 25.3534 58.9742 29.9454 64.6564 29.9454C66.361 29.9454 67.9033 29.5391 69.2426 28.8076L70.3385 29.9454H74.6406ZM64.6564 26.3693C61.3688 26.3693 58.6901 23.2809 58.6901 19.5422C58.6901 15.8442 61.3283 12.7558 64.6564 12.7558C67.9439 12.7558 70.582 15.8442 70.582 19.5422C70.582 21.2896 70.0138 22.8745 69.0803 24.053L67.9845 22.9151H63.6823L66.5639 26.0036C65.9551 26.2068 65.3057 26.3693 64.6564 26.3693Z" fill="white"/>
<path d="M19.1223 0C8.56627 0 0 8.57702 0 19.1463C0 29.7157 8.56627 38.2927 19.1223 38.2927V33.4977C11.1969 33.4977 4.78902 27.0818 4.78902 19.1463C4.78902 11.2109 11.1969 4.79503 19.1223 4.79503C27.0478 4.79503 33.4557 11.2109 33.4557 19.1463H38.2447C38.2447 8.57702 29.6784 0 19.1223 0Z" fill="white"/>
<path d="M19.1223 9.55627C13.8274 9.55627 9.578 13.8448 9.578 19.1126C9.578 24.3803 13.8611 28.7026 19.1223 28.7026V23.9414C16.4917 23.9414 14.3333 21.814 14.3333 19.1463C14.3333 16.4787 16.458 14.3513 19.1223 14.3513C21.7866 14.3513 23.9113 16.4787 23.9113 19.1463H28.7003C28.7003 13.8448 24.4172 9.55627 19.1223 9.55627Z" fill="white"/>
<path d="M42.9999 33.4976C38.076 33.4976 35.749 31.1677 34.029 29.4793C32.7811 28.2636 32.2078 27.7233 31.0611 27.7233C29.9482 27.7233 29.3411 28.2636 28.127 29.4793C26.407 31.1677 24.0462 33.4976 19.1223 33.4976V28.7026C22.0902 28.7026 23.2705 27.5545 24.7545 26.0687C26.1709 24.6842 27.9247 22.9283 31.0611 22.9283C34.1976 22.9283 35.9513 24.6842 37.3678 26.0687C38.8517 27.5545 40.0321 28.7026 42.9999 28.7026V33.4976V33.4976Z" fill="white"/>
</svg>
